<svg width="41" height="37" viewBox="0 0 41 37" fill="none" xmlns="http://www.w3.org/2000/svg">
<path id="books" d="M40.4104 31.9769L32.1877 0.843347C32.0472 0.281116 31.4147 -0.0702789 30.7822 0.0702789L29.728 0.351394C29.1657 0.491952 28.8846 0.983904 28.8846 1.54614C28.1116 2.03809 24.3868 3.02199 23.4029 3.02199C23.192 2.53004 22.6298 2.24892 22.1378 2.38948L21.3648 2.60032V2.24892C21.3648 1.05418 20.3106 0 18.5536 0H1.68669C0.983904 0 0 1.05418 0 2.24892V33.7339C0 34.9989 0.983904 35.9828 1.68669 35.9828H18.5536C20.3106 35.9828 21.3648 34.9989 21.3648 33.7339V8.15235L28.4629 35.2097C28.6035 35.772 29.236 36.1233 29.8685 35.9828L30.9227 35.7017C31.4849 35.5611 31.7661 35.0692 31.7661 34.5069C32.5391 34.015 36.2639 33.0311 37.2478 33.0311C37.4586 33.523 38.0209 33.8041 38.5128 33.6636L39.6373 33.3825C40.1995 33.1716 40.5509 32.6094 40.4104 31.9769ZM8.9957 32.6094H3.37339V29.236H8.9957V32.6094ZM8.9957 25.8626H3.37339V10.1202H8.9957V25.8626ZM8.9957 6.74677H3.37339V3.37339H8.9957V6.74677ZM17.9914 32.6094H12.3691V29.236H17.9914V32.6094ZM17.9914 25.8626H12.3691V10.1202H17.9914V25.8626ZM17.9914 6.74677H12.3691V3.37339H17.9914V6.74677ZM30.993 31.7661L24.1759 5.76287C25.3707 5.62231 28.4629 4.84924 29.6577 4.28701L36.4747 30.2902C35.28 30.4308 32.1877 31.2038 30.993 31.7661Z" fill="white"/>
</svg>
