<svg id="Layer_2" xmlns="http://www.w3.org/2000/svg" viewBox="0 0 340.5539 340.2744"><g id="Components"><g id="e9bb15f6-4daf-47ef-bec0-13f220af6097_1"><path d="m170.1372,309.1316c-76.7645,0-138.9944-62.2299-138.9944-138.9944S93.3727,31.1428,170.1372,31.1428" style="fill:none; stroke:#34a8fb; stroke-miterlimit:10; stroke-width:62.2855px;"/><path d="m182.7008,308.5715c-4.1383.3708-8.3288.5601-12.5636.5601" style="fill:none; stroke:#34a8fb; stroke-miterlimit:10; stroke-width:62.2855px;"/><path d="m255.5808,60.4987c7.0837,5.5284,13.6179,11.7283,19.5067,18.504" style="fill:none; stroke:#7d53f9; stroke-miterlimit:10; stroke-width:62.2855px;"/><path d="m307.6173,149.8794c1.4351,8.8703,2.0106,17.8593,1.7213,26.8318" style="fill:none; stroke:#aa8efa; stroke-miterlimit:10; stroke-width:62.2855px;"/><path d="m305.4615,204.195c-2.0273,8.754-4.8952,17.2926-8.5573,25.4888" style="fill:none; stroke:#96cdf9; stroke-miterlimit:10; stroke-width:62.2855px;"/><path d="m279.8927,255.1733c-5.4285,7.1606-11.5362,13.781-18.2287,19.7642" style="fill:none; stroke:#7bc2fb; stroke-miterlimit:10; stroke-width:62.2855px;"/><path d="m236.9874,291.8965c-7.8388,4.3927-16.0841,8.0188-24.6106,10.8271" style="fill:none; stroke:#58b6fb; stroke-miterlimit:10; stroke-width:62.2855px;"/><path d="m289.3041,99.028c4.7268,7.642,8.7053,15.7231,11.8788,24.1206" style="fill:none; stroke:#9470fa; stroke-miterlimit:10; stroke-width:62.2855px;"/><path d="m207.8864,36.3636c8.6886,2.2915,17.1365,5.4167,25.218,9.3254" style="fill:none; stroke:#6834fa; stroke-miterlimit:10; stroke-width:62.2855px;"/><path d="m170.1372,31.1428c4.1243,0,8.2067.1796,12.2398.5315" style="fill:none; stroke:#34a8fb; stroke-miterlimit:10; stroke-width:62.2855px;"/></g></g></svg>