<svg width="27" height="36" viewBox="0 0 27 36" fill="none" xmlns="http://www.w3.org/2000/svg">
<path id="file-video" d="M25.9453 6.89062L20.1094 1.05469C19.4766 0.421875 18.6328 0 17.7188 0H3.375C1.47656 0 0 1.54688 0 3.375V32.625C0 34.5234 1.47656 36 3.375 36H23.625C25.4531 36 27 34.5234 27 32.625V9.28125C27 8.36719 26.5781 7.52344 25.9453 6.89062ZM23.3438 9H18V3.65625L23.3438 9ZM3.375 32.625V3.375H14.625V10.6875C14.625 11.6719 15.3281 12.375 16.3125 12.375H23.625V32.625H3.375ZM19.4062 17.7891L15.75 21.5156V18.8438C15.75 18.0703 15.1172 17.4375 14.3438 17.4375H7.03125C6.1875 17.4375 5.625 18.0703 5.625 18.8438V26.1562C5.625 27 6.1875 27.5625 7.03125 27.5625H14.3438C15.1172 27.5625 15.75 27 15.75 26.1562V23.5547L19.4062 27.2812C20.1094 27.9844 21.375 27.4922 21.375 26.4375V18.6328C21.375 17.5781 20.1094 17.0859 19.4062 17.7891Z" fill="white"/>
</svg>
