<svg width="43" height="32" viewBox="0 0 43 32" fill="none" xmlns="http://www.w3.org/2000/svg">
<path id="image" d="M38.6667 0H4C1.75 0 0 1.83333 0 4V28C0 30.25 1.75 32 4 32H38.6667C40.8333 32 42.6667 30.25 42.6667 28V4C42.6667 1.83333 40.8333 0 38.6667 0ZM38.1667 28H4.5C4.16667 28 4 27.8333 4 27.5V4.5C4 4.25 4.16667 4 4.5 4H38.1667C38.4167 4 38.6667 4.25 38.6667 4.5V27.5C38.6667 27.8333 38.4167 28 38.1667 28ZM10.6667 7.33333C8.75 7.33333 7.33333 8.83333 7.33333 10.6667C7.33333 12.5833 8.75 14 10.6667 14C12.5 14 14 12.5833 14 10.6667C14 8.83333 12.5 7.33333 10.6667 7.33333ZM8 24H34.6667V17.3333L27.3333 10.0833C26.9167 9.66667 26.3333 9.66667 25.9167 10.0833L16 20L12.6667 16.75C12.25 16.3333 11.6667 16.3333 11.25 16.75L8 20V24Z" fill="white"/>
</svg>
