<svg width="28" height="28" viewBox="0 0 28 28" fill="none" xmlns="http://www.w3.org/2000/svg">
<g id="Home">
<g id="Chat">
<path id="Fill 1" d="M14.026 1.16797C6.56983 1.16797 1.16699 7.25097 1.16699 14.0013C1.16699 16.1573 1.79583 18.3775 2.89949 20.4051C3.10483 20.7388 3.13049 21.1623 2.98933 21.5601L2.12949 24.4348C1.93699 25.1278 2.52733 25.6411 3.18183 25.4358L5.77416 24.6658C6.47999 24.4348 7.03182 24.73 7.68761 25.1278C9.56127 26.2315 11.8957 26.7961 14.0003 26.7961C20.3657 26.7961 26.8337 21.881 26.8337 13.9628C26.8337 7.13547 21.3153 1.16797 14.026 1.16797" fill="#A100FD"/>
<path id="Combined Shape" fill-rule="evenodd" clip-rule="evenodd" d="M13.975 15.6566C13.0638 15.6437 12.3323 14.9122 12.3323 14.0011C12.3323 13.1027 13.0766 12.3584 13.975 12.3712C14.8861 12.3712 15.6176 13.1027 15.6176 14.0139C15.6176 14.9122 14.8861 15.6566 13.975 15.6566ZM8.05893 15.6566C7.16059 15.6566 6.41626 14.9122 6.41626 14.0139C6.41626 13.1027 7.14776 12.3712 8.05893 12.3712C8.97009 12.3712 9.70159 13.1027 9.70159 14.0139C9.70159 14.9122 8.97009 15.6437 8.05893 15.6566ZM18.2479 14.0139C18.2479 14.9122 18.9794 15.6565 19.8906 15.6565C20.8017 15.6565 21.5332 14.9122 21.5332 14.0139C21.5332 13.1027 20.8017 12.3712 19.8906 12.3712C18.9794 12.3712 18.2479 13.1027 18.2479 14.0139Z" fill="white"/>
</g>
</g>
</svg>
