<svg width="18" height="12" viewBox="0 0 18 12" fill="none" xmlns="http://www.w3.org/2000/svg">
<path d="M13.5 0H4.5C2 0 0 2.03125 0 4.5V11C0 11.5625 0.4375 12 1 12H17C17.5312 12 18 11.5625 18 11V4.5C18 2.03125 15.9688 0 13.5 0ZM7.5 10.5H1.5V4.5C1.5 2.875 2.84375 1.5 4.5 1.5C6.125 1.5 7.5 2.875 7.5 4.5V10.5ZM16.5 10.5H9V4.5C9 3.34375 8.53125 2.3125 7.8125 1.5H13.5C15.125 1.53125 16.4688 2.875 16.5 4.5V10.5ZM14.5 4H10.75C10.5938 4 10.5 4.125 10.5 4.25V5.25C10.5 5.40625 10.5938 5.5 10.75 5.5H13V6.5C13 6.78125 13.2188 7 13.5 7H14.5C14.75 7 15 6.78125 15 6.5V4.5C15 4.25 14.75 4 14.5 4ZM5.75 4H3.25C3.09375 4 3 4.125 3 4.25V5.75C3 5.90625 3.09375 6 3.25 6H5.75C5.875 6 6 5.90625 6 5.75V4.25C6 4.125 5.875 4 5.75 4Z" fill="black" fill-opacity="0.6"/>
</svg>
