<svg width="24" height="25" viewBox="0 0 24 25" fill="none" xmlns="http://www.w3.org/2000/svg">
<path d="M20.3973 18.3616C18.5357 20.9866 15.4688 22.7143 12 22.7143C8.53125 22.7143 5.46429 20.9866 3.60268 18.3616C3.95089 15.8571 4.96875 13.6339 7.24554 13.3259C8.42411 14.6116 10.125 15.4286 12 15.4286C13.875 15.4286 15.5759 14.6116 16.7545 13.3259C19.0313 13.6339 20.0491 15.8571 20.3973 18.3616ZM17.1429 9C17.1429 11.8393 14.8393 14.1429 12 14.1429C9.16071 14.1429 6.85714 11.8393 6.85714 9C6.85714 6.16071 9.16071 3.85714 12 3.85714C14.8393 3.85714 17.1429 6.16071 17.1429 9ZM24 12.4286C24 5.79911 18.6295 0.42857 12 0.42857C5.37054 0.42857 0 5.79911 0 12.4286C0 19.0446 5.37054 24.4286 12 24.4286C18.6429 24.4286 24 19.0312 24 12.4286Z" fill="#C4C4C4"/>
</svg>
