<svg width="37" height="36" viewBox="0 0 37 36" fill="none" xmlns="http://www.w3.org/2000/svg">
<path id="pencil-paintbrush" d="M30.4937 25.7344C29.0171 21.9375 26.6265 20.5312 23.8843 20.1094L34.7124 9.28125C36.4702 7.52344 36.4702 4.71094 34.7124 2.95312L33.0952 1.33594C32.2515 0.492188 31.0562 0 29.9312 0C28.7359 0 27.6109 0.492188 26.7671 1.33594L16.9234 11.1797L11.1577 2.53125C9.8921 0.773438 8.2046 0.0703125 6.58742 0.0703125C2.0171 0.0703125 -2.4829 5.69531 1.59523 10.1953L9.39992 18.7031L1.38429 26.7188L0.0483535 34.3125C-0.0922715 35.2266 0.610853 36 1.52492 36C1.59523 36 1.66554 36 1.73585 36L9.3296 34.6641L15.939 28.125C16.3609 31.2891 18.3296 36 25.9234 36C33.0249 36 36.0484 30.3047 36.0484 23.7656C35.2046 24.3281 32.5327 26.5078 31.6187 26.5078C31.1265 26.5078 30.7046 26.2266 30.4937 25.7344ZM29.1577 3.72656C29.5093 3.30469 30.2124 3.30469 30.7046 3.72656L32.3218 5.34375C32.7437 5.76562 32.7437 6.46875 32.3218 6.89062L28.6655 10.5469L25.5015 7.38281L29.1577 3.72656ZM4.12648 7.875C3.35304 7.10156 3.21242 6.32812 3.56398 5.48438C4.05617 4.35938 5.46242 3.44531 6.58742 3.44531C7.00929 3.44531 7.71242 3.51562 8.34523 4.42969L14.4624 13.6406L11.7905 16.3125L4.12648 7.875ZM7.71242 31.5703L3.84523 32.2031L4.47804 28.3359L23.1109 9.77344L26.2749 12.9375L7.71242 31.5703ZM25.9234 32.625C23.4624 32.625 21.7046 32.0625 20.5796 30.8672C19.2437 29.3203 19.103 26.9297 19.1734 26.1562L19.3843 24.6797L20.7202 23.2734L22.6187 23.3438C24.7984 23.4844 26.2749 24.1172 27.3296 26.9297C27.9624 28.6172 29.439 29.7422 31.2671 29.8828C30.2827 31.5 28.5952 32.625 25.9234 32.625Z" fill="white"/>
</svg>
